<?xml version="1.0" encoding="UTF-8" standalone="no"?>
<!-- Created with Inkscape (http://www.inkscape.org/) -->

<svg
   xmlns:dc="http://purl.org/dc/elements/1.1/"
   xmlns:cc="http://creativecommons.org/ns#"
   xmlns:rdf="http://www.w3.org/1999/02/22-rdf-syntax-ns#"
   xmlns:svg="http://www.w3.org/2000/svg"
   xmlns="http://www.w3.org/2000/svg"
   xmlns:sodipodi="http://sodipodi.sourceforge.net/DTD/sodipodi-0.dtd"
   xmlns:inkscape="http://www.inkscape.org/namespaces/inkscape"
   version="1.1"
   id="svg722"
   width="376"
   height="40.898663"
   viewBox="0 0 75.2 8.1797327"
   sodipodi:docname="button_sprite_sheet.svg"
   inkscape:version="0.92.1 r15371">
  <metadata
     id="metadata728">
    <rdf:RDF>
      <cc:Work
         rdf:about="">
        <dc:format>image/svg+xml</dc:format>
        <dc:type
           rdf:resource="http://purl.org/dc/dcmitype/StillImage" />
        <dc:title></dc:title>
      </cc:Work>
    </rdf:RDF>
  </metadata>
  <defs
     id="defs726" />
  <sodipodi:namedview
     pagecolor="#ffffff"
     bordercolor="#666666"
     borderopacity="1"
     objecttolerance="10"
     gridtolerance="10"
     guidetolerance="10"
     inkscape:pageopacity="0"
     inkscape:pageshadow="2"
     inkscape:window-width="1920"
     inkscape:window-height="1017"
     id="namedview724"
     showgrid="false"
     inkscape:zoom="3.0212766"
     inkscape:cx="-72.762776"
     inkscape:cy="23.779047"
     inkscape:window-x="-8"
     inkscape:window-y="-8"
     inkscape:window-maximized="1"
     inkscape:current-layer="svg722"
     scale-x="1" />
  <g
     id="g732"
     transform="matrix(0.1,0,0,0.1,0,0.02237615)">
    <path
       style="fill:#e4b967;stroke-width:1.33333337"
       d="M 0,40.666668 V 0 H 376 752 V 40.666668 81.333336 H 376 0 Z"
       id="path756"
       inkscape:connector-curvature="0" />
    <path
       style="fill:#dbb264;stroke-width:1.33333337"
       d="m 0.18157607,73.000002 c 0.0998668,-4.583333 0.45067249,-6.833333 0.77956812,-5 0.32889561,1.833334 1.14718631,3.903334 1.81842391,4.6 C 4.828344,74.726394 4.2385851,81.333336 2,81.333336 c -1.58381256,0 -1.96221516,-1.734115 -1.81842393,-8.333334 z M 10.333333,75.806764 5.3333333,70.590972 V 40.62882 c 0,-28.416443 0.1391334,-30.082527 2.6969698,-32.2954864 C 9.5136364,7.0500002 12.240909,4.6500002 14.090909,3.0000001 L 17.454545,0 127.06061,0.09626288 l 109.60606,0.09626287 4,4.79852545 4,4.7985254 0.40484,29.8523844 0.40482,29.852385 -3.73816,5.917111 L 238,81.328568 126.66667,81.175561 15.333333,81.022555 Z m 238.333337,4.193239 c 0.45322,-0.733334 1.08864,-1.333334 1.41202,-1.333334 0.32339,0 0.58798,0.6 0.58798,1.333334 0,0.733333 -0.63542,1.333333 -1.41203,1.333333 -0.77661,0 -1.0412,-0.6 -0.58797,-1.333333 z m 286.79742,-0.977954 c -2.12809,-1.115625 -8.39008,-2.535401 -13.91554,-3.155056 -5.52547,-0.619656 -10.77011,-1.893224 -11.65478,-2.830152 -2.47248,-2.618575 -3.4332,-61.973605 -1.0418,-64.3650018 0.98478,-0.9847703 6.37951,-2.1530934 12.12759,-2.626439 12.16437,-1.0017163 22.72457,-3.1546561 23.76991,-4.8460407 0.91858,-1.48630106 172.58386,-1.62810813 172.58386,-0.1425659 0,1.5141666 11.11319,4.2765399 17.20476,4.2765399 3.01208,0 6.41782,1.0132699 8.16731,2.429922 2.90472,2.3520965 3.02068,3.3449595 3.62044,31.0000005 0.68544,31.604849 0.0716,35.379248 -5.94535,36.554081 -10.25537,2.002423 -15.75674,3.622562 -16.15826,4.758568 -0.27327,0.773135 -35.96355,1.202956 -92.66667,1.115992 -79.7766,-0.122346 -92.74439,-0.415177 -96.09147,-2.169848 z m -276.53076,-5.95538 c -2.27118,-2.271183 -2.27118,-62.52882 0,-64.8000021 2.31864,-2.31864 231.8147,-2.31864 234.13334,0 2.27118,2.2711821 2.27118,62.5288191 0,64.8000021 -2.31864,2.31864 -231.8147,2.31864 -234.13334,0 z M 0.15466847,10.333334 C 0.01253312,0.83733276 0.21608587,0 2.6666667,0 5.8981028,0 6.1295759,3.1944876 3.4134663,10.306352 2.3575393,13.071192 1.2271401,16.533334 0.90146801,18.000001 0.57579592,19.466667 0.23973612,16.016667 0.15466847,10.333334 Z M 247.9184,5.3333335 C 247.85107,4.9666668 247.59497,3.6166668 247.34929,2.3333334 247.09448,1.0021909 247.71097,0 248.78464,0 c 1.03512,0 1.87284,0.45000001 1.86161,1 -0.0252,1.2333729 -2.55818,5.2571842 -2.72785,4.3333335 z"
       id="path754"
       inkscape:connector-curvature="0" />
    <path
       style="fill:#d4ad63;stroke-width:1.33333337"
       d="M 18.045512,78.810064 C 17.605041,77.422265 15.484561,75.557737 13.333333,74.666669 11.182106,73.775601 8.9930164,71.761073 8.4686905,70.189941 7.9443645,68.618808 7.5262783,54.889016 7.5396097,39.679293 7.5659141,9.6689209 7.9610208,7.9694743 15.342595,6.1168171 17.073081,5.6824927 18.869356,4.1285307 19.334317,2.6635682 20.169983,0.03061881 21.391592,0 125.60362,0 h 105.42393 l 3.00813,3.0000001 c 1.65447,1.6500001 4.42327,3.9800585 6.15289,5.1779076 l 3.14476,2.1779073 v 30.08952 30.089518 l -5.61514,5.399241 -5.61516,5.399242 H 125.4747 c -103.437463,0 -106.652299,-0.07551 -107.429188,-2.523272 z m 544.621158,1.252611 c 0,-2.242879 -9.36194,-3.956618 -29.93084,-5.478955 C 517.16904,73.431597 512.29276,72.618868 511,70.961013 c -1.21639,-1.55992 -1.66667,-9.949215 -1.66667,-31.052592 0,-21.52774 0.42582,-29.258016 1.66667,-30.2569071 0.91667,-0.7379197 9.46667,-1.7629048 19,-2.2777447 23.30121,-1.2583627 36.19483,-2.9430715 41.04601,-5.363165 C 574.44959,0.31268158 583.96077,0 632.20485,0 c 32.97722,0 57.12848,0.50745043 57.12848,1.2003457 0,1.9954177 11.6026,4.0047317 31.9788,5.5380204 10.62168,0.7992705 20.07168,2.0835794 21,2.8540197 1.26972,1.0537702 1.68282,8.7098972 1.66746,30.9042092 -0.0107,16.226874 -0.51092,30.276514 -1.11043,31.221422 -0.70815,1.116145 -6.65659,2.155984 -16.97959,2.968181 -16.42597,1.29237 -27.2229,3.468614 -27.2229,5.487086 0,0.642683 -30.32718,1.160052 -68,1.160052 -42.20851,0 -68,-0.481945 -68,-1.270661 z M 260.76191,71.238097 c -1.77396,-1.773955 -2.09524,-6.46176 -2.09524,-30.571429 0,-24.109669 0.32128,-28.797474 2.09524,-30.57143 C 262.63375,8.2233983 274.92064,8.0000003 376,8.0000003 c 101.07936,0 113.36625,0.223398 115.23809,2.0952377 3.12871,3.128706 3.12871,58.014154 0,61.142859 -1.87184,1.87184 -14.15873,2.095239 -115.23809,2.095239 -101.07936,0 -113.36625,-0.223399 -115.23809,-2.095239 z"
       id="path752"
       inkscape:connector-curvature="0" />
    <path
       style="fill:#d1aa5e;stroke-width:1.33333337"
       d="M 18.530669,77.614736 C 16.622537,75.626632 13.648587,73.039581 11.92189,71.865732 8.7938639,69.739228 8.7826463,69.6325 8.8388157,42.532397 8.8698217,27.572913 9.3137247,14.047862 9.8252669,12.476729 10.336809,10.905596 12.581869,8.8635518 14.814289,7.9388532 17.046709,7.0141545 19.795763,4.8496267 20.923297,3.1287914 L 22.97336,0 h 103.7568 c 97.63672,0 103.80177,0.13763144 104.51909,2.3333334 0.41927,1.2833334 2.77092,3.6306563 5.22591,5.216273 5.53841,3.5771236 6.19151,7.3537056 6.19151,35.8031566 0,24.951799 -0.54795,28.032537 -5.50695,30.96189 -2.1064,1.244279 -4.16948,3.332507 -4.58461,4.640504 -0.71604,2.256055 -6.14216,2.375512 -105.66496,2.326246 L 22,81.229469 Z m 554.802661,2.385267 c 0,-0.733334 -1.15,-1.333334 -2.55556,-1.333334 -1.40554,0 -2.75554,-0.597524 -3,-1.32783 C 567.53333,76.608532 557.73333,74.958532 546,73.672172 l -21.33333,-2.338836 -0.90118,-6.000001 c -2.284,-15.206952 -0.13133,-41.337137 4.29308,-52.111669 1.391,-3.3874171 1.80339,-3.4818765 24.67104,-5.6510026 12.79103,-1.2133003 24.45955,-2.8130495 25.93007,-3.5549985 1.47051,-0.7419489 3.86551,-1.9489982 5.32223,-2.6823315 3.58958,-1.80705116 91.56794,-1.80705116 92.68476,0 0.45322,0.7333333 2.23864,1.3333334 3.96757,1.3333334 1.72895,0 3.34353,0.5765446 3.58799,1.2812103 0.24444,0.7046656 11.33568,2.3255162 24.64718,3.6018902 l 24.20275,2.3206798 1.3988,4.7314439 c 3.71967,12.581787 5.46853,39.528095 3.38336,52.13035 l -0.783,4.732239 -21.47152,2.291304 c -11.80933,1.260217 -21.80039,2.730709 -22.20233,3.267761 -2.99888,4.006918 -7.4529,4.309791 -63.37938,4.309791 -36.90094,0 -56.68476,-0.465353 -56.68476,-1.333333 z"
       id="path750"
       inkscape:connector-curvature="0" />
    <path
       style="fill:#cba55d;stroke-width:1.33333337"
       d="M 24.67538,78.694121 C 24.214671,77.242555 22.148,75.056761 20.082779,73.836806 16.872756,71.940598 16.110548,70.303004 14.830583,62.552515 12.781762,50.146436 12.989228,30.508936 15.283493,19.682695 16.904789,12.032079 18.021937,9.9047994 22.810697,5.349362 L 28.434044,0 127.21702,0.00843017 226,0.01686035 228.19445,3.8745019 c 1.20695,2.1217028 3.40684,4.2424388 4.88866,4.7127464 3.84769,1.221211 6.28609,15.8920617 6.10746,36.7460867 -0.15574,18.181096 -1.57972,23.907313 -7.32693,29.463695 -1.90833,1.844969 -3.70833,4.070397 -4,4.945397 -0.40455,1.213638 -24.46032,1.590909 -101.44046,1.590909 -99.389253,0 -100.922771,-0.03978 -101.7478,-2.639215 z m 565.82067,-1.97584 c -0.39706,-0.397069 -6.9104,-1.590397 -14.47405,-2.65184 -7.56367,-1.061444 -14.26229,-2.440061 -14.88583,-3.063596 -1.92054,-1.920549 -3.9506,-21.888755 -3.0841,-30.336177 0.96817,-9.438604 5.47346,-24.502371 8.54678,-28.576774 5.03588,-6.6762 68.27108,-9.6725003 107.29588,-5.084045 10.94211,1.2865502 20.01836,2.4865502 20.16944,2.6666668 0.1511,0.1801164 1.55102,2.8585962 3.11095,5.9521772 3.92833,7.790468 6.78175,20.76057 6.80517,30.932758 0.0213,9.251296 -2.38181,25.426366 -3.78382,25.468474 -0.47472,0.01425 -6.86314,1.020956 -14.19647,2.237105 -9.733,1.61411 -24.32992,2.341607 -54.05767,2.694189 -22.39838,0.265653 -41.04921,0.15813 -41.44628,-0.238938 z"
       id="path748"
       inkscape:connector-curvature="0" />
    <path
       style="fill:#c19d59;stroke-width:1.33333337"
       d="M 29.93876,79.900913 C 27.583028,76.08926 25.190335,61.778827 24.441624,47.023156 23.686872,32.148436 23.938559,29.360678 27.301379,15.347709 L 30.988721,-0.0175602 126.49436,0.32455324 222,0.66666669 225.18063,12.666667 c 4.1403,15.620749 4.42954,44.034392 0.5972,58.666669 l -2.4445,9.333333 -96.24924,0.342078 C 58.855303,81.251237 30.573979,80.92872 29.93876,79.900913 Z"
       id="path746"
       inkscape:connector-curvature="0" />
    <path
       style="fill:#b79555;stroke-width:1.33333337"
       d="m 35.397959,79.020951 c -0.818638,-2.133334 2.198748,-5.898202 5.809864,-7.249117 0.64468,-0.241174 0.07124,-4.638498 -1.274311,-9.771832 -3.973292,-15.158278 -3.343681,-28.887732 2.138653,-46.636 1.59249,-5.155457 1.53094,-5.3677482 -2.217102,-7.6470687 -2.120284,-1.2894222 -3.845875,-2.803223 -3.834646,-3.364002 0.08651,-4.32021866 1.327087,-4.37531047 90.730873,-4.02919692 88.41864,0.34229975 88.58278,0.34801994 88.97642,3.10109892 0.27213,1.9032106 -0.69832,3.256032 -3.13076,4.3643262 -2.57387,1.1727353 -3.27642,2.2274485 -2.60346,3.9085005 2.07634,5.186686 4.48146,16.158677 5.34472,24.382193 0.82826,7.890111 -1.5256,26.978456 -4.17972,33.894985 -0.48218,1.25657 0.51547,2.541286 2.77179,3.569339 2.43244,1.108293 3.40289,2.461115 3.13076,4.364326 -0.39373,2.753716 -0.53989,2.75872 -90.5815,3.100772 -84.809396,0.322177 -90.240456,0.203616 -91.081581,-1.988324 z"
       id="path744"
       inkscape:connector-curvature="0" />
    <path
       style="fill:#aa8b51;stroke-width:1.33333337"
       d="m 42.666777,79.333469 c -1.395216,-1.681133 -0.943102,-2.294434 2.83674,-3.848092 2.473066,-1.016523 6.488815,-2.273553 8.923887,-2.7934 3.456568,-0.73792 4.219484,-1.429067 3.479209,-3.151909 C 52.357959,56.626682 51.958463,30.60584 57.106308,17.412806 58.663036,13.423183 59.80096,10.046642 59.635028,9.9093837 59.469096,9.772125 55.913872,8.6784791 51.734529,7.4790596 47.555187,6.2796399 43.811793,4.774164 43.415876,4.1335575 41.06384,0.32788206 47.708056,0 127.17846,0 c 72.95262,0 80.98575,0.20981819 81.72434,2.1345665 1.0418,2.7148969 -0.72433,3.7694289 -9.66356,5.7699403 l -7.21197,1.6139695 1.8788,3.6332197 c 6.24744,12.081221 7.78794,33.463548 3.51984,48.855683 -2.82894,10.201985 -2.6799,10.548881 5.09129,11.850778 6.35409,1.064495 8.42585,2.536814 7.38531,5.248446 -0.78544,2.046834 -7.50843,2.226733 -83.21524,2.226733 -71.580526,0 -82.577995,-0.261763 -84.020493,-1.999867 z"
       id="path742"
       inkscape:connector-curvature="0" />
    <path
       style="fill:#9e824c;stroke-width:1.33333337"
       d="m 50.685005,79.355433 c -2.162488,-2.60564 1.482426,-4.013787 15.400108,-5.949559 11.49443,-1.598728 12.232424,-1.912669 10.281311,-4.37365 -2.053616,-2.590271 -5.500112,-14.224817 -6.459345,-21.805204 -1.088596,-8.602675 1.28238,-20.436084 6.02437,-30.067307 L 79.627544,9.6527579 66.373984,7.6088126 C 59.084525,6.4846427 52.854204,5.2986491 52.528827,4.9732712 52.203449,4.6478934 52.315547,3.3957981 52.777933,2.1908375 53.543617,0.19549922 60.137072,0 126.66667,0 c 63.36804,0 73.14869,0.26233561 73.80769,1.9796609 1.09516,2.8539335 -2.24741,4.1459756 -15.53661,6.005545 -6.45092,0.9026809 -11.52063,2.0252881 -11.26603,2.4946831 6.16013,11.357392 8.04873,17.706536 8.67968,29.179528 0.57963,10.539773 0.24179,13.534811 -2.33124,20.666668 -1.655,4.587321 -3.53932,9.005367 -4.18739,9.817879 -0.82833,1.03853 2.8152,2.093166 12.26759,3.5509 7.39524,1.140482 13.77211,2.399822 14.17081,2.798535 0.39871,0.39871 0.36964,1.650805 -0.0647,2.782433 -0.69854,1.820501 -9.37631,2.057504 -75.33474,2.057504 -64.265695,0 -74.77161,-0.272747 -76.186765,-1.977903 z"
       id="path740"
       inkscape:connector-curvature="0" />
    <path
       style="fill:#8f7646;stroke-width:1.33333337"
       d="m 59.534217,79.376036 c -0.413097,-1.076515 -0.246494,-2.269155 0.37023,-2.650312 7.607864,-4.701918 126.025543,-4.634575 133.647423,0.076 0.73234,0.452616 0.6019,1.543045 -0.31706,2.650312 -2.38842,2.877891 -132.595481,2.803873 -133.700593,-0.076 z M 72.618543,6.7337553 C 61.806616,5.0597022 59.592465,4.0976184 61.436933,1.8751697 c 2.362968,-2.84720165 129.896397,-2.16428672 129.896397,0.695568 0,1.0472391 -1.8,2.4923695 -4,3.211401 C 182.46649,7.3727788 82.121839,8.2051879 72.618543,6.7337553 Z"
       id="path738"
       inkscape:connector-curvature="0" />
    <path
       style="fill:#79643d;stroke-width:1.33333337"
       d="m 72.045592,79.388271 c -2.91378,-3.51089 4.414651,-4.054935 54.621078,-4.054935 50.20642,0 57.53485,0.544045 54.62108,4.054935 -2.41664,2.911864 -106.825526,2.911864 -109.242158,0 z M 82,5.8399445 C 80.533333,5.5042043 77.930383,4.9281476 76.215665,4.5598185 73.65602,4.0099949 73.386929,3.5419885 74.712259,1.9450647 77.072127,-0.89840274 175.22125,-0.96921887 178.06097,1.870497 179.66608,3.4756041 179.60528,3.8949804 177.6324,4.8263067 175.22607,5.9622589 86.636267,6.9012498 82,5.8399445 Z"
       id="path736"
       inkscape:connector-curvature="0" />
    <path
       style="fill:#685737;stroke-width:1.33333337"
       d="m 86.302272,79.454563 c -2.217693,-1.682658 -2.176329,-1.844351 0.666667,-2.606056 3.983258,-1.067209 76.180771,-1.091098 78.956051,-0.02613 1.65874,0.636524 1.79716,1.239178 0.61245,2.666667 -2.21259,2.666008 -76.718199,2.633987 -80.235168,-0.03448 z M 90.237449,4.3957672 c -2.350068,-0.6077601 -2.350068,-0.6882255 0,-2.4695938 3.496598,-2.65044645 69.306391,-2.69329884 72.793621,-0.0474 2.21769,1.682657 2.17632,1.8443511 -0.66667,2.6060559 -3.49248,0.9357142 -68.474647,0.8554742 -72.126951,-0.089062 z"
       id="path734"
       inkscape:connector-curvature="0" />
  </g>
</svg>
