<?xml version="1.0" encoding="utf-8"?>
<!-- Generator: Adobe Illustrator 16.0.3, SVG Export Plug-In . SVG Version: 6.00 Build 0)  -->
<!DOCTYPE svg PUBLIC "-//W3C//DTD SVG 1.1//EN" "http://www.w3.org/Graphics/SVG/1.1/DTD/svg11.dtd">
<svg version="1.1" id="Layer_1" xmlns="http://www.w3.org/2000/svg" xmlns:xlink="http://www.w3.org/1999/xlink" x="0px" y="0px"
	 width="102.761px" height="72.204px" viewBox="0 0 102.761 72.204" enable-background="new 0 0 102.761 72.204"
	 xml:space="preserve">
<path fill-rule="evenodd" clip-rule="evenodd" fill="#D53327" d="M51.708,0.612c-2.714,0.862-2.559,2.954-3.733,6.934
	c-0.927,3.141-0.927,3.141-2.351,7.358c-2.964,9.322-2.964,9.322-7.279,19.709c-8.35,19.507-18.35,15.864-27.519,12.074
	c-1.852-0.766-7.21-2.867-8.834-3.021c-1.882-0.178-1.472,2.6-0.148,5.464c1.657,2.676,4.833,7.574,12.407,11.854
	c11.601,6.554,20.493,9.718,37.478,10.494h0.018c16.985-0.776,25.877-3.94,37.478-10.494c7.575-4.279,10.75-9.178,12.407-11.854
	c1.324-2.864,1.734-5.642-0.148-5.464c-1.625,0.153-6.982,2.255-8.834,3.021c-9.168,3.79-19.169,7.433-27.519-12.074
	c-4.315-10.387-4.315-10.387-7.279-19.709c-1.423-4.218-1.423-4.218-2.351-7.358c-1.175-3.979-1.019-6.071-3.733-6.934"/>
</svg>
