<?xml version="1.0" encoding="utf-8"?>
<!-- Generator: Adobe Illustrator 16.0.3, SVG Export Plug-In . SVG Version: 6.00 Build 0)  -->
<!DOCTYPE svg PUBLIC "-//W3C//DTD SVG 1.1//EN" "http://www.w3.org/Graphics/SVG/1.1/DTD/svg11.dtd">
<svg version="1.1" id="Layer_1" xmlns="http://www.w3.org/2000/svg" xmlns:xlink="http://www.w3.org/1999/xlink" x="0px" y="0px"
	 width="99.125px" height="72.284px" viewBox="0 0 99.125 72.284" enable-background="new 0 0 99.125 72.284" xml:space="preserve">
<path fill="#FFFFFF" stroke="#000000" stroke-miterlimit="10" d="M87.418,48.935C94.27,43.701,98.16,36.351,98.16,28.506
	C98.16,13.285,83.447,0.9,65.357,0.9c-5.299,0-10.356,1.031-15.031,3.064c-0.391,0.169-0.777,0.346-1.159,0.528
	c-0.208-0.102-0.42-0.202-0.631-0.3C43.863,2.039,38.568,0.9,33.225,0.9C15.421,0.9,0.937,13.285,0.937,28.506
	c0,7.854,3.838,15.214,10.598,20.448C5.694,49.795,1.202,54.639,1.202,60.47c0,6.421,5.448,11.646,12.144,11.646h72.406
	c6.696,0,12.143-5.225,12.143-11.646C97.895,54.591,93.328,49.715,87.418,48.935z"/>
<path fill-rule="evenodd" clip-rule="evenodd" d="M18.951,20.634c-0.424-1.489-0.528-3.083-0.057-4.696
	c0.336-1.155,0.933-2.164,1.961-2.852c1.763-1.179,3.601-1.456,5.516-0.494c1.263,0.634,2.189,1.617,2.966,2.753
	c0.722,1.058,1.291,2.203,1.678,3.418c0.505,1.606,0.72,3.263,0.338,4.962c-0.485,2.163-1.822,3.541-3.98,4.109
	c-1.394,0.366-2.705,0.105-3.903-0.611c-1.114-0.665-2.012-1.561-2.726-2.633C19.95,23.401,19.387,22.098,18.951,20.634z
	 M28.317,20.622c-0.313-1.183-0.88-2.251-1.488-3.295c-0.331-0.574-0.735-1.105-1.134-1.633c-0.336-0.444-0.802-0.737-1.327-0.936
	c-1.034-0.391-2.176,0.065-2.667,1.069c-0.219,0.454-0.333,0.934-0.295,1.427c0.039,0.485,0.088,0.977,0.208,1.443
	c0.498,1.899,1.315,3.647,2.563,5.167c0.321,0.39,0.727,0.725,1.13,1.036c1.223,0.946,3.143,0.057,3.29-1.483
	C28.689,22.447,28.566,21.533,28.317,20.622z"/>
<path fill-rule="evenodd" clip-rule="evenodd" d="M30.043,33.565c-0.72,0.29-1.379,0.559-2.047,0.829
	c-0.556-0.346-0.653-0.91-0.752-1.452c-0.022-0.109,0.098-0.273,0.196-0.367c0.56-0.533,1.087-1.121,1.717-1.558
	c0.602-0.424,1.311-0.698,1.981-1.015c0.235-0.11,0.437-0.015,0.58,0.249c0.185,0.339,0.348,0.691,0.517,1.04
	c0.877,1.821,1.75,3.646,2.63,5.468c0.583,1.208,1.169,2.411,1.76,3.611c0.141,0.289,0.308,0.565,0.48,0.877
	c0.21-0.063,0.376-0.094,0.523-0.164c0.44-0.208,0.869-0.437,1.312-0.644c0.274-0.127,0.455-0.082,0.592,0.169
	c0.283,0.519,0.59,1.031,0.742,1.571c-0.05,0.313-0.256,0.42-0.462,0.519c-1.933,0.94-3.864,1.875-5.799,2.809
	c-0.228,0.111-0.447,0.269-0.771,0.157c-0.396-0.45-0.569-1.063-0.85-1.614c-0.104-0.208-0.028-0.411,0.183-0.519
	c0.432-0.226,0.877-0.423,1.315-0.636c0.201-0.098,0.446-0.133,0.546-0.409c-0.012-0.065-0.004-0.161-0.042-0.236
	c-1.361-2.779-2.727-5.554-4.094-8.33C30.251,33.819,30.165,33.731,30.043,33.565z"/>
<path fill-rule="evenodd" clip-rule="evenodd" d="M60.656,33.544c0.861-1.287,2.008-2.397,3.543-3.083
	c1.098-0.491,2.253-0.69,3.443-0.351c2.04,0.581,3.44,1.802,3.947,3.885c0.333,1.373,0.184,2.715-0.179,4.043
	c-0.339,1.235-0.844,2.41-1.519,3.492c-0.897,1.425-2.022,2.661-3.564,3.47c-1.963,1.03-3.878,0.902-5.708-0.375
	c-1.181-0.826-1.831-1.994-2.061-3.371c-0.214-1.28-0.112-2.544,0.243-3.782C59.193,36.097,59.823,34.824,60.656,33.544z
	 M66.728,40.676c0.699-1.005,1.146-2.128,1.549-3.267c0.223-0.624,0.367-1.276,0.511-1.921c0.121-0.544,0.043-1.088-0.146-1.617
	c-0.371-1.041-1.458-1.616-2.541-1.341c-0.488,0.126-0.928,0.35-1.279,0.698c-0.344,0.344-0.688,0.699-0.965,1.093
	c-1.125,1.608-1.929,3.363-2.28,5.298c-0.09,0.497-0.082,1.023-0.058,1.532c0.07,1.544,1.991,2.433,3.26,1.548
	C65.577,42.141,66.194,41.456,66.728,40.676z"/>
<path fill-rule="evenodd" clip-rule="evenodd" d="M74.117,14.329c-0.741-0.387-1.422-0.737-2.11-1.096
	c-0.112-0.677,0.274-1.129,0.642-1.568c0.072-0.09,0.29-0.103,0.435-0.086c0.825,0.096,1.67,0.13,2.467,0.346
	c0.766,0.203,1.487,0.591,2.215,0.919c0.255,0.115,0.32,0.341,0.208,0.631c-0.144,0.373-0.313,0.738-0.476,1.105
	c-0.854,1.915-1.712,3.828-2.563,5.745c-0.563,1.271-1.124,2.54-1.676,3.813c-0.133,0.305-0.239,0.622-0.37,0.968
	c0.199,0.127,0.341,0.24,0.501,0.312c0.478,0.216,0.965,0.409,1.443,0.627c0.296,0.136,0.386,0.312,0.281,0.588
	c-0.22,0.572-0.418,1.16-0.746,1.64c-0.288,0.168-0.52,0.073-0.745-0.027c-2.12-0.929-4.236-1.861-6.353-2.797
	c-0.25-0.11-0.532-0.181-0.669-0.515c0.084-0.617,0.457-1.163,0.704-1.755c0.095-0.222,0.312-0.295,0.548-0.198
	c0.487,0.198,0.959,0.424,1.44,0.635c0.22,0.097,0.421,0.271,0.715,0.168c0.045-0.053,0.127-0.11,0.161-0.19
	c1.285-2.939,2.564-5.88,3.843-8.822C74.059,14.665,74.068,14.538,74.117,14.329z"/>
</svg>
