<?xml version="1.0" encoding="utf-8"?>
<!-- Generator: Adobe Illustrator 16.0.3, SVG Export Plug-In . SVG Version: 6.00 Build 0)  -->
<!DOCTYPE svg PUBLIC "-//W3C//DTD SVG 1.1//EN" "http://www.w3.org/Graphics/SVG/1.1/DTD/svg11.dtd">
<svg version="1.1" id="Layer_1" xmlns="http://www.w3.org/2000/svg" xmlns:xlink="http://www.w3.org/1999/xlink" x="0px" y="0px"
	 width="99.125px" height="72.284px" viewBox="0 0 99.125 72.284" enable-background="new 0 0 99.125 72.284" xml:space="preserve">
<path fill="#FFFFFF" stroke="#000000" stroke-miterlimit="10" d="M87.432,48.534c6.852-5.175,10.742-12.442,10.742-20.198
	c0-15.05-14.713-27.295-32.803-27.295c-5.299,0-10.356,1.019-15.031,3.03c-0.391,0.167-0.777,0.342-1.159,0.522
	c-0.208-0.101-0.42-0.2-0.631-0.297c-4.673-2.13-9.968-3.255-15.312-3.255c-17.804,0-32.288,12.245-32.288,27.295
	c0,7.766,3.838,15.042,10.598,20.217c-5.84,0.831-10.333,5.62-10.333,11.386c0,6.349,5.448,11.514,12.144,11.514h72.406
	c6.696,0,12.143-5.166,12.143-11.514C97.909,54.127,93.342,49.306,87.432,48.534z"/>
<path fill-rule="evenodd" clip-rule="evenodd" d="M26.999,20.646c-1.672,0.132-3.199,0.256-4.751,0.378
	c-0.907-1.035-0.728-2.21-0.573-3.349c0.031-0.231,0.387-0.484,0.648-0.608c1.506-0.712,2.981-1.549,4.562-2.03
	c1.519-0.465,3.154-0.569,4.745-0.783c0.551-0.075,0.901,0.243,1.021,0.852c0.151,0.789,0.251,1.587,0.362,2.384
	c0.58,4.163,1.152,8.327,1.736,12.489c0.387,2.756,0.785,5.509,1.193,8.259c0.099,0.66,0.253,1.311,0.396,2.041
	c0.474,0.003,0.835,0.044,1.184-0.001c1.04-0.14,2.076-0.331,3.118-0.464c0.647-0.083,0.987,0.119,1.101,0.703
	c0.236,1.206,0.521,2.414,0.471,3.578c-0.31,0.591-0.803,0.673-1.292,0.744c-4.589,0.665-9.177,1.326-13.767,1.983
	c-0.541,0.077-1.097,0.252-1.685-0.172c-0.511-1.138-0.458-2.458-0.662-3.729c-0.077-0.476,0.214-0.832,0.721-0.918
	c1.034-0.177,2.08-0.296,3.118-0.445c0.479-0.067,1.004,0.011,1.396-0.474c0.021-0.135,0.097-0.321,0.071-0.493
	c-0.932-6.359-1.874-12.717-2.821-19.073C27.253,21.278,27.137,21.055,26.999,20.646z"/>
<path fill-rule="evenodd" clip-rule="evenodd" d="M57.104,24.006c1.125-2.907,2.88-5.584,5.562-7.588
	c1.918-1.435,4.069-2.313,6.516-2.145c4.195,0.287,7.424,2.113,9.281,6.014c1.225,2.572,1.503,5.288,1.36,8.067
	c-0.133,2.582-0.615,5.116-1.471,7.534c-1.129,3.196-2.79,6.112-5.432,8.359c-3.364,2.861-7.127,3.418-11.21,1.665
	c-2.634-1.132-4.385-3.166-5.413-5.79c-0.956-2.436-1.292-4.979-1.127-7.574C55.354,29.662,56.037,26.882,57.104,24.006z
	 M71.871,35.537c0.932-2.279,1.324-4.689,1.623-7.107c0.164-1.326,0.171-2.677,0.177-4.015c0.005-1.124-0.374-2.165-0.962-3.128
	c-1.16-1.9-3.509-2.58-5.487-1.58c-0.893,0.452-1.65,1.082-2.183,1.918c-0.523,0.821-1.038,1.668-1.407,2.564
	c-1.5,3.653-2.315,7.459-2.178,11.427c0.035,1.024,0.274,2.057,0.535,3.057c0.791,3.019,4.883,3.964,6.962,1.682
	C70.26,38.918,71.164,37.3,71.871,35.537z"/>
</svg>
