<?xml version="1.0" encoding="UTF-8" standalone="no"?>
<!-- Generator: Adobe Illustrator 16.0.3, SVG Export Plug-In . SVG Version: 6.00 Build 0)  -->

<svg
   xmlns:dc="http://purl.org/dc/elements/1.1/"
   xmlns:cc="http://creativecommons.org/ns#"
   xmlns:rdf="http://www.w3.org/1999/02/22-rdf-syntax-ns#"
   xmlns:svg="http://www.w3.org/2000/svg"
   xmlns="http://www.w3.org/2000/svg"
   xmlns:sodipodi="http://sodipodi.sourceforge.net/DTD/sodipodi-0.dtd"
   xmlns:inkscape="http://www.inkscape.org/namespaces/inkscape"
   version="1.1"
   id="Layer_1"
   x="0px"
   y="0px"
   width="99.125px"
   height="72.284px"
   viewBox="0 0 99.125 72.284"
   enable-background="new 0 0 99.125 72.284"
   xml:space="preserve"
   sodipodi:docname="ff03.svg"
   inkscape:version="0.92.1 r15371"><metadata
     id="metadata3691"><rdf:RDF><cc:Work
         rdf:about=""><dc:format>image/svg+xml</dc:format><dc:type
           rdf:resource="http://purl.org/dc/dcmitype/StillImage" /></cc:Work></rdf:RDF></metadata><defs
     id="defs3689" /><sodipodi:namedview
     pagecolor="#ffffff"
     bordercolor="#666666"
     borderopacity="1"
     objecttolerance="10"
     gridtolerance="10"
     guidetolerance="10"
     inkscape:pageopacity="0"
     inkscape:pageshadow="2"
     inkscape:window-width="1920"
     inkscape:window-height="1017"
     id="namedview3687"
     showgrid="false"
     inkscape:zoom="11.731504"
     inkscape:cx="35.028984"
     inkscape:cy="36.141998"
     inkscape:window-x="-8"
     inkscape:window-y="-8"
     inkscape:window-maximized="1"
     inkscape:current-layer="Layer_1" /><path
     stroke-miterlimit="10"
     d="M87.432,48.534c6.852-5.175,10.742-12.442,10.742-20.198  c0-15.05-14.713-27.295-32.803-27.295c-5.299,0-10.356,1.019-15.031,3.03c-0.391,0.167-0.777,0.342-1.159,0.522  c-0.208-0.101-0.42-0.2-0.631-0.297c-4.673-2.13-9.968-3.255-15.312-3.255c-17.804,0-32.288,12.245-32.288,27.295  c0,7.766,3.838,15.042,10.598,20.217c-5.84,0.831-10.333,5.62-10.333,11.386c0,6.349,5.448,11.514,12.144,11.514h72.406  c6.696,0,12.143-5.166,12.143-11.514C97.909,54.127,93.342,49.306,87.432,48.534z"
     id="path3680"
     stroke="#000000"
     fill="#FFFFFF" /><path
     d="m 72.919433,17.457173 c -1.513994,-0.721684 -2.898415,-1.377798 -4.303486,-2.048143 -0.267985,-1.349836 0.474535,-2.277915 1.178268,-3.186819 0.142346,-0.184551 0.577151,-0.225656 0.865184,-0.202543 1.660234,0.13639 3.356122,0.149027 4.965807,0.522969 1.547994,0.356796 3.015945,1.084231 4.500792,1.694402 0.514679,0.210547 0.658788,0.660944 0.458211,1.248353 -0.26373,0.758794 -0.576128,1.499882 -0.878499,2.245604 -1.579205,3.895264 -3.165839,7.787394 -4.74108,11.683792 -1.042847,2.580266 -2.07467,5.163434 -3.096331,7.749004 -0.244264,0.621077 -0.436396,1.261859 -0.677554,1.965557 0.408995,0.239599 0.701131,0.455606 1.025873,0.591135 0.970667,0.398756 1.96337,0.751345 2.932268,1.157164 0.601818,0.25162 0.795267,0.596557 0.601994,1.159316 -0.398618,1.162426 -0.755801,2.351086 -1.381102,3.334139 -0.563968,0.356821 -1.031919,0.181335 -1.490905,-0.0017 -4.30669,-1.718593 -8.610515,-3.440149 -12.914071,-5.166171 -0.507021,-0.203816 -1.07603,-0.330261 -1.373253,-0.991457 0.126464,-1.241035 0.83236,-2.35769 1.291191,-3.560408 0.171321,-0.450727 0.60133,-0.613533 1.083405,-0.434511 0.983969,0.363713 1.949332,0.783656 2.922766,1.173618 0.448326,0.181477 0.86399,0.511526 1.445972,0.287508 0.08569,-0.106413 0.244503,-0.229494 0.307987,-0.39145 2.372364,-5.973056 4.735569,-11.950246 7.093442,-17.928203 0.0871,-0.226845 0.09813,-0.47797 0.18312,-0.901174 z"
     id="path3682"
     inkscape:connector-curvature="0"
     style="clip-rule:evenodd;fill-rule:evenodd" /><path
     d="m 16.850033,29.058772 c -0.479222,-3.080036 -0.297847,-6.275886 1.022833,-9.352401 0.943537,-2.201746 2.367357,-4.037617 4.570522,-5.115624 3.776476,-1.848951 7.485872,-1.882089 11.044581,0.567776 2.346882,1.614918 3.945637,3.828043 5.211295,6.306227 1.175819,2.302578 2.025394,4.738086 2.493077,7.260136 0.620257,3.332317 0.639789,6.688147 -0.52475,9.955106 -1.48281,4.159699 -4.463163,6.523575 -8.875645,7.046932 -2.847111,0.33666 -5.380522,-0.549336 -7.582796,-2.307787 -2.04592,-1.631638 -3.608405,-3.66594 -4.76301,-5.995776 -1.283652,-2.59135 -2.082156,-5.3404 -2.596107,-8.364589 z m 18.554097,2.602639 c -0.332364,-2.439672 -1.197882,-4.722793 -2.147941,-6.966343 -0.520972,-1.23035 -1.190409,-2.40385 -1.854213,-3.565592 -0.55767,-0.975912 -1.406394,-1.687945 -2.397117,-2.227927 -1.954589,-1.065449 -4.328883,-0.479846 -5.541881,1.37518 -0.547361,0.837943 -0.887942,1.762039 -0.931534,2.752536 -0.04243,0.972507 -0.06493,1.963531 0.0635,2.923989 0.527462,3.913591 1.724651,7.617184 3.827296,10.985073 0.542311,0.86931 1.265791,1.644414 1.991824,2.379939 2.194526,2.219031 6.210802,0.991425 6.870269,-2.024345 0.415127,-1.898978 0.389014,-3.752208 0.119794,-5.63251 z"
     id="path3684"
     inkscape:connector-curvature="0"
     style="clip-rule:evenodd;fill-rule:evenodd" /></svg>