<?xml version="1.0" encoding="UTF-8" standalone="no"?>
<!-- Created with Inkscape (http://www.inkscape.org/) -->

<svg
   xmlns:dc="http://purl.org/dc/elements/1.1/"
   xmlns:cc="http://creativecommons.org/ns#"
   xmlns:rdf="http://www.w3.org/1999/02/22-rdf-syntax-ns#"
   xmlns:svg="http://www.w3.org/2000/svg"
   xmlns="http://www.w3.org/2000/svg"
   xmlns:sodipodi="http://sodipodi.sourceforge.net/DTD/sodipodi-0.dtd"
   xmlns:inkscape="http://www.inkscape.org/namespaces/inkscape"
   version="1.1"
   id="svg777"
   width="188"
   height="40.807388"
   viewBox="0 0 188 40.807388"
   sodipodi:docname="press_sprite_sheet2.svg"
   inkscape:version="0.92.1 r15371">
  <metadata
     id="metadata783">
    <rdf:RDF>
      <cc:Work
         rdf:about="">
        <dc:format>image/svg+xml</dc:format>
        <dc:type
           rdf:resource="http://purl.org/dc/dcmitype/StillImage" />
        <dc:title></dc:title>
      </cc:Work>
    </rdf:RDF>
  </metadata>
  <defs
     id="defs781" />
  <sodipodi:namedview
     pagecolor="#ffffff"
     bordercolor="#666666"
     borderopacity="1"
     objecttolerance="10"
     gridtolerance="10"
     guidetolerance="10"
     inkscape:pageopacity="0"
     inkscape:pageshadow="2"
     inkscape:window-width="1920"
     inkscape:window-height="1017"
     id="namedview779"
     showgrid="false"
     inkscape:zoom="1.0681826"
     inkscape:cx="-330.38593"
     inkscape:cy="-13.120789"
     inkscape:window-x="-8"
     inkscape:window-y="-8"
     inkscape:window-maximized="1"
     inkscape:current-layer="svg777" />
  <g
     id="g787"
     transform="matrix(0.5,0,0,0.5,0,0.0209245)">
    <path
       style="fill:#e4b967;stroke-width:1.33333337"
       d="M 0,40.666668 V 0 H 188 376 V 40.666668 81.333336 H 188 0 Z"
       id="path803"
       inkscape:connector-curvature="0" />
    <path
       style="fill:#d5ae63;stroke-width:1.33333337"
       d="m 0.25993163,78.000003 c 0.0271729,-2.200001 0.32599812,-2.938582 0.664056,-1.641291 0.33805787,1.297289 0.31582547,3.097289 -0.0494053,4 -0.36523077,0.902709 -0.64182358,-0.158709 -0.6146507,-2.358709 z m 7.71042067,1.666666 c -0.016306,-0.916666 -1.2029648,-3.166666 -2.637019,-5 C 2.9191324,71.580289 2.7237657,69.04876 2.6963144,40.496595 2.6706461,13.798914 2.9537605,9.4215862 4.8055673,7.8847229 5.9819628,6.9084014 7.4671123,4.7349346 8.1058996,3.0547965 L 9.2673311,0 H 63.165709 117.06409 l 2.80129,5.3743916 c 2.60074,4.9896364 2.80129,7.4942984 2.80129,34.9859914 0,25.150471 -0.35153,30.466669 -2.33334,35.287278 L 118,81.32334 63,81.328273 C 19.901987,81.332255 7.9935843,80.972669 7.9703523,79.666669 Z M 272,79.358739 c 0,-1.086028 -1.65,-2.346198 -3.66667,-2.800375 -2.01666,-0.454178 -5.85978,-1.373419 -8.54026,-2.042758 l -4.87359,-1.21698 -0.52425,-30.982646 c -0.28834,-17.040455 -0.0625,-31.960897 0.50184,-33.156536 0.71754,-1.5202109 3.66138,-2.4561059 9.79009,-3.1124349 6.51928,-0.6981556 9.17257,-1.5927614 10.35916,-3.4927773 C 276.55828,0.13319892 278.65085,0 315.17373,0 c 33.35552,0 38.73644,0.27918772 40.05182,2.0780799 0.83574,1.1429439 4.80189,2.8043816 8.81365,3.6920839 l 7.29413,1.6140039 0.83439,9.3079173 c 1.35213,15.083671 1.27304,50.851761 -0.12053,54.517212 -0.79912,2.101844 -2.69255,3.696381 -5,4.210727 -7.37859,1.644723 -8.38052,2.12332 -8.38052,4.003163 0,1.618794 -6.60963,1.910149 -43.33334,1.910149 C 277.95147,81.333336 272,81.062141 272,79.358739 Z m -141.06667,-6.29207 c -2.27118,-2.271183 -2.27118,-62.52882 0,-64.8000021 2.30001,-2.300011 111.83332,-2.300011 114.13334,0 2.27118,2.2711821 2.27118,62.5288191 0,64.8000021 -2.30002,2.300011 -111.83333,2.300011 -114.13334,0 z M 0.33624453,4.6666668 C 0.32144536,1.7333334 0.58238341,0.37633785 0.91610688,1.6511211 1.2498304,2.9259045 1.2619388,5.3259046 0.94301448,6.9844546 0.6240902,8.6430048 0.35104372,7.6000002 0.33624453,4.6666668 Z"
       id="path801"
       inkscape:connector-curvature="0" />
    <path
       style="fill:#cca65d;stroke-width:1.33333337"
       d="M 11.335839,78.674563 C 10.871714,77.212237 9.4812817,75.004844 8.2459883,73.769246 6.2727737,71.795545 6,67.863709 6,41.394945 6,12.170133 6.0899115,11.152899 9,7.4537826 10.65,5.3564095 12,2.8212921 12,1.8201885 12,0.31298098 20.769439,0.00890725 63,0.0518015 l 51,0.05180149 3.02286,6.28153201 c 2.86382,5.951067 3.02165,7.833676 3,35.78494 -0.0183,23.659995 -0.39307,29.810654 -1.89204,31.054691 -1.02805,0.853207 -2.23948,3.026674 -2.69207,4.829927 l -0.82289,3.278643 H 63.397781 c -49.996386,0 -51.238209,-0.06342 -52.061942,-2.658773 z M 289.03585,78.088151 c -1.63784,-2.253693 -4.1445,-3.415417 -8.73044,-4.046143 -3.53812,-0.486616 -7.30422,-1.423242 -8.36913,-2.08139 -4.41389,-2.727929 -2.53536,-57.171067 2.13376,-61.840182 0.96441,-0.9644116 4.94319,-2.152676 8.84172,-2.6405872 7.01089,-0.8774311 15.75491,-4.457042 15.75491,-6.4497207 0,-0.56657044 7.2,-1.0301281 16,-1.0301281 9.77777,0 16,0.51851854 16,1.3333334 0,0.7333333 0.45,1.2099716 1,1.0591963 0.55,-0.1507754 2.85617,0.7161121 5.12482,1.9264168 2.26866,1.2103047 7.25836,2.6162324 11.08824,3.1242837 3.82988,0.5080515 7.74552,1.7058288 8.70142,2.6617278 0.95589,0.955898 2.41618,6.297841 3.24509,11.870984 1.84581,12.410371 1.98895,45.299019 0.2116,48.620023 -0.89105,1.664955 -3.54636,2.70188 -8.50545,3.321479 -5.15255,0.643766 -8.08326,1.830392 -10.27027,4.158359 -3.02345,3.218325 -3.34235,3.257029 -26.49453,3.215633 -23.0994,-0.04131 -23.46708,-0.08707 -25.73174,-3.203285 z"
       id="path799"
       inkscape:connector-curvature="0" />
    <path
       style="fill:#c19d59;stroke-width:1.33333337"
       d="M 14.119472,78.333336 C 12.199361,71.62132 11.83863,27.247226 13.596485,14 L 15.365768,0.66666669 62.921055,0.31659452 c 44.447805,-0.32719685 47.599455,-0.19650766 48.231155,2.00000008 3.43067,11.9288124 4.19682,54.0146084 1.3353,73.3500744 l -0.83863,5.666667 H 63.313283 14.977684 Z"
       id="path797"
       inkscape:connector-curvature="0" />
    <path
       style="fill:#af8f52;stroke-width:1.33333337"
       d="m 19.122801,79.265495 c -0.451113,-1.175583 0.451835,-3.393445 2.092614,-5.139974 2.783134,-2.962511 2.831606,-3.51912 1.358433,-15.598826 C 21.029337,45.862039 21.739988,25.202445 24.06362,15.216994 25.110511,10.718136 24.914381,9.7481919 22.638811,8.1707041 21.187465,7.1645913 20,4.9145912 20,3.170704 V 0 h 43.333333 43.333337 v 3.2864217 c 0,1.9711105 -1.11756,3.8845216 -2.79232,4.7808271 -2.018,1.079997 -2.56835,2.2946672 -1.98466,4.3802452 2.36384,8.446081 3.43068,31.238805 2.08252,44.492361 -1.38594,13.625001 -1.33794,14.187123 1.46616,17.171953 1.64984,1.756173 2.55708,3.976865 2.1055,5.153687 -0.69443,1.809652 -6.21454,2.067841 -44.210537,2.067841 -37.996,0 -43.516102,-0.258189 -44.210532,-2.067841 z"
       id="path795"
       inkscape:connector-curvature="0" />
    <path
       style="fill:#9e824c;stroke-width:1.33333337"
       d="m 24,78.828429 c 0,-2.365653 2.801072,-4.044379 10.224405,-6.12764 2.575466,-0.722772 2.749283,-1.278361 1.592223,-5.089397 C 33.155231,58.845482 32.826223,33.310757 35.222308,21.485587 36.461679,15.369043 37.248587,10.137476 36.970995,9.8598839 36.693403,9.5822912 34.111368,8.5430976 31.23314,7.5505645 27.609292,6.3009102 25.868132,4.8560266 25.571189,2.8520529 L 25.14238,-0.04185324 62.904523,0.31240673 c 36.202757,0.3396308 37.762147,0.45979159 37.762147,2.90981567 0,1.8213507 -1.628022,3.0982287 -5.66667,4.4444445 -3.116667,1.038889 -5.666564,2.288889 -5.666439,2.7777781 1.27e-4,0.488889 0.900127,5.59167 2,11.339513 2.436004,12.730331 2.497619,29.137324 0.154882,41.241872 l -1.746876,9.025827 3.46255,0.799463 c 5.49152,1.267928 9.464163,4.259911 8.610363,6.484868 -0.65637,1.710471 -6.299616,1.997348 -39.290465,1.997348 C 25.718149,81.333336 24,81.221619 24,78.828429 Z"
       id="path793"
       inkscape:connector-curvature="0" />
    <path
       style="fill:#8f7646;stroke-width:1.33333337"
       d="m 29.333333,78.847851 c 0,-4.067734 9.341795,-5.522687 34.92376,-5.439259 23.733267,0.0774 32.409574,1.485029 32.409574,5.258077 0,1.715567 -4.787954,2.050662 -33.666667,2.356228 -32.302621,0.341795 -33.666667,0.253671 -33.666667,-2.175046 z m 10,-71.4412953 C 38.6,7.1279077 36.35,6.5360091 34.333333,6.0912255 31.826072,5.5382394 30.666667,4.4398612 30.666667,2.6175593 c 0,-2.60092006 0.776664,-2.65638794 32.315741,-2.30793073 28.586005,0.31583041 32.363797,0.60697763 32.732123,2.52260193 0.229009,1.19106 -0.663074,2.6538801 -1.982408,3.250711 -2.391812,1.0819909 -51.866566,2.285795 -54.39879,1.3236142 z"
       id="path791"
       inkscape:connector-curvature="0" />
    <path
       style="fill:#6d5b39;stroke-width:1.33333337"
       d="m 38.168119,79.290652 c -1.429934,-3.726346 5.521637,-4.85069 27.165214,-4.39369 11.366667,0.240006 21.390463,0.905588 22.275102,1.479074 0.884638,0.573485 1.270445,1.923485 0.857348,3 -1.14491,2.983587 -49.151262,2.902093 -50.297664,-0.08539 z M 42.921311,5.5930891 c -1.693279,-0.5095323 -3.043279,-1.3764223 -3,-1.9264223 C 39.964589,3.1166668 40,2.0666667 40,1.3333334 40,0.49555055 48.619116,0 63.190681,0 c 19.159098,0 23.321255,0.34026686 23.941768,1.9573001 0.413098,1.0765149 0.02729,2.426515 -0.857348,3.0000001 -2.045718,1.326178 -39.2465,1.8717323 -43.35379,0.6357889 z"
       id="path789"
       inkscape:connector-curvature="0" />
  </g>
</svg>
