<?xml version="1.0" encoding="utf-8"?>
<!-- Generator: Adobe Illustrator 16.0.3, SVG Export Plug-In . SVG Version: 6.00 Build 0)  -->
<!DOCTYPE svg PUBLIC "-//W3C//DTD SVG 1.1//EN" "http://www.w3.org/Graphics/SVG/1.1/DTD/svg11.dtd">
<svg version="1.1" id="Layer_1" xmlns="http://www.w3.org/2000/svg" xmlns:xlink="http://www.w3.org/1999/xlink" x="0px" y="0px"
	 width="246.25px" height="36px" viewBox="0 0 246.25 36" enable-background="new 0 0 246.25 36" xml:space="preserve">
<path fill-rule="evenodd" clip-rule="evenodd" fill="#D53327" d="M44.043,20.445c1.216,0.007,3.076,0.458,3.132-1.467
	c0.053-1.803-1.723-1.771-3.014-1.793c-7.656-0.123-7.656-0.123-22.956,0.405c-4.513,0.458-8.967,0.266-13.433-0.431
	c-3.462-0.539-4.098-2.649-2.85-5.409c1.851-4.091,5.29-6.639,9.646-7.067c17.269-1.701,34.565-1.548,51.858-0.188
	c2.071,0.163,3.237,0.907,3.758,3.12C71.333,12.5,69.1,13.904,75,13.904c14,0,19.061-0.429,28.523-0.517
	c42.459-0.396,84.916-0.823,127.376-0.541c2.483,0.017,4.986,0.206,7.44,0.574c3.297,0.495,4.984,2.641,4.815,5.926
	c-0.158,3.075-1.813,4.834-5.091,4.966c-3.32,0.133-6.632,0.684-9.948,0.691c-24.314,0.063-48.628,0.034-72.941,0.034
	c0,0.013,0,0.026,0,0.039c-25.643,0-55.282-0.095-80.924-0.15c-4.417,0.407-3.837,3.252-4.253,6.301
	c-0.102,2.162-2.021,2.897-4.039,2.896c-16.638-0.014-33.279,0.146-49.911-0.185c-5.021-0.1-9.241-2.797-11.471-7.655
	c-1.484-3.233-0.904-5.28,3.219-5.833"/>
</svg>
